<svg width="261" height="48" viewBox="0 0 261 48" fill="none" xmlns="http://www.w3.org/2000/svg">
<rect x="0.5" width="260" height="48" rx="12" fill="#FEE500"/>
<rect x="0.5" width="260" height="48" rx="12" fill="#FEE500"/>
<rect x="1" y="0.5" width="259" height="47" rx="11.5" stroke="black" stroke-opacity="0.85"/>
<path d="M87 23.5834C87.0029 24.6832 86.7459 25.7683 86.25 26.75C85.662 27.9265 84.7581 28.916 83.6395 29.6078C82.521 30.2995 81.2319 30.6662 79.9167 30.6667C78.8168 30.6696 77.7318 30.4126 76.75 29.9167L72 31.5L73.5833 26.75C73.0874 25.7683 72.8305 24.6832 72.8333 23.5834C72.8338 22.2682 73.2005 20.9791 73.8923 19.8605C74.584 18.7419 75.5735 17.838 76.75 17.25C77.7318 16.7541 78.8168 16.4972 79.9167 16.5H80.3333C82.0703 16.5959 83.7109 17.329 84.941 18.5591C86.171 19.7892 86.9042 21.4297 87 23.1667V23.5834Z" fill="black"/>
<path d="M113.692 23.856H111.5V31.216H109.852V16.768H111.5V22.48H113.692V23.856ZM107.772 18.224C107.772 19.3013 107.676 20.3467 107.484 21.36C107.303 22.3627 106.967 23.3173 106.476 24.224C105.996 25.1307 105.335 25.984 104.492 26.784C103.649 27.5733 102.572 28.2987 101.26 28.96L100.364 27.68C101.644 27.04 102.673 26.352 103.452 25.616C104.231 24.8693 104.833 24.0427 105.26 23.136L100.684 23.584L100.46 22.16L105.756 21.824C105.948 21.12 106.076 20.368 106.14 19.568H101.196V18.224H107.772ZM128.411 23.856H126.219V31.216H124.571V16.768H126.219V22.48H128.411V23.856ZM122.491 18.224C122.491 19.3013 122.395 20.3467 122.203 21.36C122.021 22.3627 121.685 23.3173 121.195 24.224C120.715 25.1307 120.053 25.984 119.211 26.784C118.368 27.5733 117.291 28.2987 115.979 28.96L115.083 27.68C116.363 27.04 117.392 26.352 118.171 25.616C118.949 24.8693 119.552 24.0427 119.979 23.136L115.403 23.584L115.179 22.16L120.475 21.824C120.667 21.12 120.795 20.368 120.859 19.568H115.915V18.224H122.491ZM142.842 28.112V29.456H129.754V28.112H135.45V25.344C134.788 25.28 134.18 25.1467 133.626 24.944C133.082 24.7307 132.612 24.464 132.218 24.144C131.823 23.8133 131.514 23.4293 131.289 22.992C131.076 22.544 130.97 22.048 130.97 21.504C130.97 20.9067 131.103 20.3733 131.37 19.904C131.636 19.424 132.004 19.0187 132.474 18.688C132.943 18.3467 133.503 18.0853 134.154 17.904C134.804 17.7227 135.514 17.632 136.282 17.632C137.05 17.632 137.754 17.7227 138.394 17.904C139.044 18.0853 139.604 18.3467 140.074 18.688C140.554 19.0187 140.927 19.424 141.194 19.904C141.46 20.3733 141.594 20.9067 141.594 21.504C141.594 22.0373 141.482 22.528 141.258 22.976C141.044 23.424 140.735 23.8133 140.33 24.144C139.935 24.4747 139.46 24.7467 138.906 24.96C138.362 25.1627 137.759 25.296 137.098 25.36V28.112H142.842ZM132.57 21.504C132.57 21.8987 132.66 22.256 132.842 22.576C133.034 22.8853 133.29 23.152 133.61 23.376C133.94 23.6 134.33 23.7707 134.778 23.888C135.236 24.0053 135.738 24.064 136.282 24.064C136.815 24.064 137.306 24.0053 137.753 23.888C138.212 23.7707 138.607 23.6 138.938 23.376C139.268 23.152 139.524 22.8853 139.706 22.576C139.887 22.256 139.978 21.8987 139.978 21.504C139.978 21.1093 139.887 20.7573 139.706 20.448C139.524 20.128 139.268 19.856 138.938 19.632C138.607 19.408 138.212 19.2373 137.753 19.12C137.306 19.0027 136.815 18.944 136.282 18.944C135.738 18.944 135.236 19.0027 134.778 19.12C134.33 19.2373 133.94 19.408 133.61 19.632C133.29 19.856 133.034 20.128 132.842 20.448C132.66 20.7573 132.57 21.1093 132.57 21.504ZM161.138 28.176V29.536H148.05V28.176H153.746V25.712H149.634V21.056H157.954V19.12H149.602V17.792H159.586V22.368H151.25V24.384H159.906V25.712H155.394V28.176H161.138ZM172.513 19.552H164.161V18.224H174.161V19.776C174.161 20.256 174.156 20.752 174.145 21.264C174.145 21.7653 174.129 22.2987 174.097 22.864C174.065 23.4293 174.012 24.0373 173.937 24.688C173.862 25.328 173.756 26.032 173.617 26.8L171.953 26.624C172.092 25.9093 172.198 25.2427 172.273 24.624C172.348 23.9947 172.401 23.4027 172.433 22.848C172.476 22.2827 172.497 21.7493 172.497 21.248C172.508 20.736 172.513 20.2453 172.513 19.776V19.552ZM175.841 27.856V29.216H162.769V27.856H175.841ZM189.392 27.28H187.744V16.784H189.392V27.28ZM185.424 21.36C185.424 21.8827 185.328 22.368 185.136 22.816C184.944 23.2533 184.672 23.632 184.32 23.952C183.979 24.272 183.573 24.5227 183.104 24.704C182.645 24.8853 182.144 24.976 181.6 24.976C181.056 24.976 180.549 24.8853 180.08 24.704C179.611 24.5227 179.205 24.272 178.864 23.952C178.523 23.632 178.251 23.2533 178.048 22.816C177.856 22.368 177.76 21.8827 177.76 21.36C177.76 20.8267 177.856 20.3413 178.048 19.904C178.251 19.456 178.523 19.072 178.864 18.752C179.205 18.432 179.611 18.1867 180.08 18.016C180.549 17.8347 181.056 17.744 181.6 17.744C182.144 17.744 182.645 17.8347 183.104 18.016C183.573 18.1867 183.979 18.432 184.32 18.752C184.672 19.072 184.944 19.456 185.136 19.904C185.328 20.3413 185.424 20.8267 185.424 21.36ZM179.376 21.36C179.376 21.6907 179.429 21.9893 179.536 22.256C179.653 22.5227 179.808 22.752 180 22.944C180.203 23.136 180.437 23.2853 180.704 23.392C180.981 23.4987 181.28 23.552 181.6 23.552C181.92 23.552 182.213 23.4987 182.48 23.392C182.747 23.2853 182.981 23.136 183.184 22.944C183.387 22.752 183.541 22.5227 183.648 22.256C183.765 21.9893 183.824 21.6907 183.824 21.36C183.824 21.0187 183.765 20.7147 183.648 20.448C183.541 20.1813 183.387 19.952 183.184 19.76C182.981 19.568 182.747 19.424 182.48 19.328C182.213 19.2213 181.92 19.168 181.6 19.168C180.96 19.168 180.427 19.3653 180 19.76C179.584 20.1547 179.376 20.688 179.376 21.36ZM189.808 29.616V30.96H179.952V26.224H181.616V29.616H189.808Z" fill="black" fill-opacity="0.85"/>
</svg>
